<?xml version="1.0" encoding="UTF-8"?>
<svg xmlns="http://www.w3.org/2000/svg" version="1.1" viewBox="0 0 1600 500">
  <defs>
    <style>
      .cls-1 {
        fill: #603813;
      }

      .cls-2 {
        fill: none;
        stroke-linecap: round;
        stroke-linejoin: round;
        stroke-width: 4px;
      }

      .cls-2, .cls-3, .cls-4 {
        stroke: #603813;
      }

      .cls-3 {
        fill: #ffdf00;
      }

      .cls-3, .cls-4 {
        stroke-miterlimit: 10;
        stroke-width: 5px;
      }

      .cls-4 {
        fill: #f27421;
      }
    </style>
  </defs>
  <!-- Generator: Adobe Illustrator 28.7.1, SVG Export Plug-In . SVG Version: 1.2.0 Build 142)  -->
  <g>
    <g id="Layer_1">
      <g>
        <path class="cls-1" d="M644.06,200.39c-.96,0-1.6-.36-1.91-1.08-.31-.72-.32-1.44-.04-2.16.29-.72.91-1.08,1.87-1.08,1.3,0,2.52-.5,3.67-1.51,1.15-1.01,2.29-2.53,3.42-4.57,1.13-2.04,2.28-4.61,3.46-7.7,1.18-3.1,2.39-6.73,3.64-10.91l3.17.86c-1.25,4.85-2.47,9.04-3.67,12.56-1.2,3.53-2.48,6.46-3.85,8.78-1.37,2.33-2.84,4.04-4.43,5.15s-3.36,1.66-5.33,1.66ZM665.23,200.46c-1.82,0-3.53-.29-5.11-.86-1.58-.58-2.88-1.37-3.89-2.38-.29-.33-.42-.73-.4-1.19.02-.46.3-.92.83-1.4.43-.43.82-.7,1.15-.79.34-.1.72.05,1.15.43.96.67,1.94,1.21,2.95,1.62,1.01.41,2.18.61,3.53.61,1.58,0,2.83-.44,3.74-1.33.91-.89,1.37-2.08,1.37-3.56,0-1.3-.35-2.48-1.04-3.56-.7-1.08-1.58-2.11-2.66-3.1-1.08-.98-2.22-1.97-3.42-2.95-1.2-.98-2.35-2-3.46-3.06-1.1-1.06-2-2.21-2.7-3.46-.7-1.25-1.04-2.64-1.04-4.18s.41-2.83,1.22-3.74c.82-.91,1.8-1.37,2.95-1.37.86,0,1.51.2,1.94.61.43.41.65.97.65,1.69,0,.67-.14,1.43-.43,2.27-.29.84-.62,1.69-1.01,2.56,0,1.1.47,2.12,1.4,3.06s2.1,1.88,3.49,2.84c1.39.96,2.77,2.02,4.14,3.17,1.37,1.15,2.52,2.48,3.46,4,.94,1.51,1.4,3.28,1.4,5.29,0,2.64-.91,4.76-2.74,6.37-1.82,1.61-4.32,2.41-7.49,2.41Z"/>
        <path class="cls-1" d="M688.7,201.32c-2.4,0-3.6-1.25-3.6-3.74,0-1.25.3-2.18.9-2.81.6-.62,1.5-.94,2.7-.94,2.4,0,3.6,1.25,3.6,3.74,0,1.25-.3,2.18-.9,2.81-.6.62-1.5.94-2.7.94Z"/>
        <path class="cls-1" d="M714.4,200.46c-3.84,0-6.98-1.3-9.43-3.89-2.45-2.59-3.67-6.31-3.67-11.16,0-2.3.33-4.44,1.01-6.41.67-1.97,1.62-3.66,2.84-5.08,1.22-1.42,2.66-2.51,4.32-3.28,1.66-.77,3.47-1.15,5.44-1.15,1.68,0,3.42.36,5.22,1.08,1.8.72,3.4,1.92,4.79,3.6.43.53.6,1,.5,1.4-.1.41-.36.85-.79,1.33-.48.48-.94.78-1.37.9-.43.12-.89-.01-1.37-.4-1.06-.86-2.1-1.63-3.13-2.3-1.03-.67-2.36-1.01-4-1.01-1.34,0-2.52.26-3.53.79-1.01.53-1.87,1.27-2.59,2.23-.72.96-1.27,2.11-1.66,3.46-.38,1.34-.58,2.86-.58,4.54,0,3.36.72,5.99,2.16,7.88,1.44,1.9,3.43,2.84,5.98,2.84,1.3,0,2.39-.19,3.28-.58.89-.38,1.69-.92,2.41-1.62.72-.7,1.46-1.48,2.23-2.34.43-.48.89-.7,1.37-.65.48.05.98.29,1.51.72.53.43.88.84,1.04,1.22.17.38.06.84-.32,1.37-1.06,1.54-2.22,2.78-3.49,3.74-1.27.96-2.6,1.66-4,2.09-1.39.43-2.78.65-4.18.65Z"/>
        <path class="cls-1" d="M736.8,201.32c-2.4,0-3.6-1.25-3.6-3.74,0-1.25.3-2.18.9-2.81.6-.62,1.5-.94,2.7-.94,2.4,0,3.6,1.25,3.6,3.74,0,1.25-.3,2.18-.9,2.81-.6.62-1.5.94-2.7.94Z"/>
        <path class="cls-1" d="M760.2,200.39c-3.22,0-5.82-1.2-7.81-3.6-1.99-2.4-2.99-6-2.99-10.8,0-2.5.29-4.75.86-6.77.58-2.02,1.43-3.75,2.56-5.22,1.13-1.46,2.48-2.58,4.07-3.35,1.58-.77,3.41-1.15,5.47-1.15,1.25,0,2.5.18,3.74.54,1.25.36,2.45.85,3.6,1.48v-.22c0-.53.22-.92.65-1.19.43-.26,1.06-.4,1.87-.4s1.43.13,1.84.4c.41.26.61.66.61,1.19v22.39c0,.58.06,1.03.18,1.37.12.34.31.58.58.72.26.14.56.22.9.22.38,0,.7-.06.94-.18.24-.12.49-.31.76-.58l.9-.9c.19-.29.47-.41.83-.36.36.05.73.22,1.12.5.43.34.7.71.79,1.12.1.41.02.78-.22,1.12-.43.72-.96,1.36-1.58,1.91-.62.55-1.32.98-2.09,1.3-.77.31-1.56.47-2.38.47-.91,0-1.7-.11-2.38-.32-.67-.22-1.24-.55-1.69-1.01-.46-.46-.82-1-1.08-1.62-.26-.62-.42-1.32-.47-2.09,0-.19-.01-.43-.04-.72-.02-.29-.04-.58-.04-.86-.82,1.63-1.75,2.93-2.81,3.89-1.06.96-2.15,1.66-3.28,2.09-1.13.43-2.27.65-3.42.65ZM754.51,185.84c0,2.02.23,3.77.68,5.26.46,1.49,1.16,2.64,2.12,3.46.96.82,2.16,1.22,3.6,1.22,1.2,0,2.34-.33,3.42-1.01,1.08-.67,2.08-1.67,2.99-2.99.91-1.32,1.7-2.96,2.38-4.93v-11.02c-1.2-.72-2.34-1.2-3.42-1.44-1.08-.24-2.2-.36-3.35-.36-1.3,0-2.46.24-3.49.72-1.03.48-1.92,1.21-2.66,2.2-.74.98-1.31,2.22-1.69,3.71-.38,1.49-.58,3.22-.58,5.18Z"/>
        <path class="cls-1" d="M790.65,201.32c-2.4,0-3.6-1.25-3.6-3.74,0-1.25.3-2.18.9-2.81.6-.62,1.5-.94,2.7-.94,2.4,0,3.6,1.25,3.6,3.74,0,1.25-.3,2.18-.9,2.81-.6.62-1.5.94-2.7.94Z"/>
        <path class="cls-1" d="M827.53,183.97c.34-3.12.37-6.28,1.15-9.24-.36.54-.7,1.12-1.02,1.75v-5.26c0-.53-.22-.91-.65-1.15-.43-.24-1.06-.36-1.87-.36s-1.43.12-1.84.36c-.41.24-.61.62-.61,1.15v49.32c0,.48.2.85.61,1.12.41.26,1.02.4,1.84.4s1.44-.13,1.87-.4c.43-.26.65-.64.65-1.12v-35.16c-.13-.45-.18-.93-.13-1.42Z"/>
        <path class="cls-1" d="M868.63,200.39c-3.22,0-5.82-1.2-7.81-3.6-1.99-2.4-2.99-6-2.99-10.8,0-2.5.29-4.75.86-6.77.58-2.02,1.43-3.75,2.56-5.22,1.13-1.46,2.48-2.58,4.07-3.35,1.58-.77,3.41-1.15,5.47-1.15,1.58,0,3.18.29,4.79.86,1.61.58,3.08,1.37,4.43,2.38v4.39c-1.54-1.25-3.01-2.08-4.43-2.48-1.42-.41-2.82-.61-4.21-.61-1.3,0-2.46.24-3.49.72-1.03.48-1.92,1.21-2.66,2.2-.75.98-1.31,2.22-1.69,3.71-.38,1.49-.58,3.22-.58,5.18s.23,3.77.68,5.26c.46,1.49,1.16,2.64,2.12,3.46.96.82,2.16,1.22,3.6,1.22s2.8-.47,4.07-1.4c1.27-.94,2.42-2.34,3.46-4.21,1.03-1.87,1.86-4.22,2.48-7.06l1.01,3.82c-.72,3.31-1.69,5.95-2.92,7.92-1.22,1.97-2.6,3.38-4.14,4.25-1.54.86-3.1,1.3-4.68,1.3ZM885.26,200.39c-1.15,0-2.17-.17-3.06-.5-.89-.34-1.63-.86-2.23-1.58-.6-.72-1.06-1.63-1.37-2.74-.31-1.1-.47-2.42-.47-3.96v-20.3c0-.53.22-.92.65-1.19.43-.26,1.06-.4,1.87-.4s1.43.13,1.84.4c.41.26.61.66.61,1.19v20.16c0,1.68.24,2.87.72,3.56.48.7,1.32,1.04,2.52,1.04.58,0,.94.36,1.08,1.08.14.72.06,1.44-.25,2.16-.31.72-.95,1.08-1.91,1.08Z"/>
        <path class="cls-1" d="M833.3,199.47c-1.54-.86-2.92-2.28-4.14-4.25-1.22-1.97-2.2-4.61-2.92-7.92l1.01-3.82c.62,2.83,1.45,5.18,2.48,7.06,1.03,1.87,2.18,3.28,3.46,4.21,1.27.94,2.63,1.4,4.07,1.4s2.64-.41,3.6-1.22c.96-.82,1.67-1.97,2.12-3.46.46-1.49.68-3.24.68-5.26s-.19-3.7-.58-5.18c-.38-1.49-.95-2.72-1.69-3.71-.74-.98-1.63-1.72-2.66-2.2-1.03-.48-2.2-.72-3.49-.72-1.39,0-2.8.21-4.21.61-1.42.41-2.89,1.24-4.43,2.48v-4.39c1.34-1.01,2.82-1.8,4.43-2.38,1.61-.58,3.2-.86,4.79-.86,2.06,0,3.89.38,5.47,1.15,1.58.77,2.94,1.88,4.07,3.35,1.13,1.46,1.98,3.2,2.56,5.22.58,2.02.86,4.27.86,6.77,0,4.8-1,8.4-2.99,10.8-1.99,2.4-4.6,3.6-7.81,3.6-1.58,0-3.14-.43-4.68-1.3Z"/>
        <path class="cls-1" d="M912.19,222.28c-2.5,0-4.5-.62-6.01-1.87-1.51-1.25-2.27-2.95-2.27-5.11,0-1.01.19-2,.58-2.99.38-.98.97-1.97,1.76-2.95.79-.98,1.79-1.98,2.99-2.99,1.2-1.01,2.59-2.06,4.18-3.17.58-.38,1.16-.76,1.76-1.12.6-.36,1.2-.72,1.8-1.08.6-.36,1.19-.71,1.76-1.04v-6.55c-.77,1.54-1.68,2.82-2.74,3.85-1.06,1.03-2.21,1.81-3.46,2.34-1.25.53-2.57.79-3.96.79-1.97,0-3.67-.37-5.11-1.12s-2.53-1.87-3.28-3.38c-.75-1.51-1.12-3.44-1.12-5.8v-12.46c0-1.39-.19-2.35-.58-2.88-.38-.53-1.1-.79-2.16-.79-.72,0-1.21-.36-1.48-1.08-.26-.72-.26-1.44,0-2.16.26-.72.8-1.08,1.62-1.08,1.82,0,3.29.34,4.39,1.01,1.1.67,1.91,1.67,2.41,2.99.5,1.32.76,2.94.76,4.86v11.45c0,2.02.43,3.52,1.3,4.5.86.98,2.18,1.48,3.96,1.48,1.15,0,2.22-.25,3.2-.76.98-.5,1.86-1.21,2.63-2.12.77-.91,1.45-1.99,2.05-3.24.6-1.25,1.09-2.59,1.48-4.03v-14.54c0-.53.2-.91.61-1.15.41-.24,1.02-.36,1.84-.36s1.44.12,1.87.36c.43.24.65.62.65,1.15v35.78c0,3.26-.47,6.04-1.4,8.32-.94,2.28-2.27,4.01-4,5.18-1.73,1.18-3.74,1.76-6.05,1.76ZM912.47,217.81c1.3,0,2.4-.41,3.31-1.22.91-.82,1.63-2.04,2.16-3.67.53-1.63.79-3.65.79-6.05v-2.09c-.53.29-1.01.55-1.44.79-.43.24-.83.49-1.19.76-.36.26-.76.52-1.19.76-1.01.77-1.88,1.49-2.63,2.16-.74.67-1.36,1.31-1.84,1.91-.48.6-.84,1.2-1.08,1.8-.24.6-.36,1.21-.36,1.84,0,.96.29,1.7.86,2.23.58.53,1.44.79,2.59.79Z"/>
        <path class="cls-1" d="M964.39,200.39c-1.15,0-2.17-.17-3.06-.5-.89-.34-1.63-.86-2.23-1.58-.6-.72-1.06-1.63-1.37-2.74-.31-1.1-.47-2.42-.47-3.96v-11.52c0-1.87-.41-3.34-1.22-4.39-.82-1.06-2.19-1.58-4.11-1.58-.96,0-1.9.19-2.81.58-.91.38-1.79,1-2.63,1.84-.84.84-1.61,1.9-2.3,3.17-.7,1.27-1.31,2.77-1.84,4.5v14.54c0,.48-.21.85-.65,1.12-.43.26-1.06.4-1.87.4s-1.43-.13-1.84-.4c-.41-.26-.61-.64-.61-1.12v-27.5c0-.53.2-.91.61-1.15.41-.24,1.02-.36,1.84-.36s1.44.12,1.87.36c.43.24.65.62.65,1.15v5.26c.82-1.63,1.77-2.96,2.85-4,1.08-1.03,2.25-1.79,3.53-2.27,1.27-.48,2.56-.72,3.85-.72,1.87,0,3.54.34,5,1.01,1.46.67,2.6,1.75,3.42,3.24.82,1.49,1.22,3.46,1.22,5.9v11.81c0,1.68.24,2.87.72,3.56.48.7,1.32,1.04,2.52,1.04.72,0,1.19.36,1.4,1.08.21.72.13,1.44-.25,2.16-.38.72-1.13,1.08-2.23,1.08Z"/>
        <path class="cls-1" d="M986.78,200.39c-2.3,0-4.26-.5-5.87-1.51-1.61-1.01-2.82-2.48-3.64-4.43-.82-1.94-1.22-4.33-1.22-7.16v-12.1h-4.46c-.58,0-.98-.17-1.22-.5-.24-.34-.36-.94-.36-1.8s.12-1.46.36-1.8c.24-.34.65-.5,1.22-.5h4.46v-11.74c0-.53.2-.91.61-1.15.41-.24,1.02-.36,1.84-.36s1.44.12,1.87.36c.43.24.65.62.65,1.15v11.74h7.27c.58,0,.98.17,1.22.5.24.34.36.94.36,1.8s-.12,1.46-.36,1.8c-.24.34-.65.5-1.22.5h-7.27v11.88c0,1.92.25,3.55.76,4.9.5,1.34,1.26,2.36,2.27,3.06,1.01.7,2.28,1.04,3.82,1.04.72,0,1.19.36,1.4,1.08.22.72.13,1.44-.25,2.16-.38.72-1.13,1.08-2.23,1.08Z"/>
        <path class="cls-1" d="M998.22,190.96c2.02-1.39,3.78-2.71,5.29-3.96,1.51-1.25,2.76-2.45,3.74-3.6.98-1.15,1.71-2.24,2.2-3.28.48-1.03.72-2.03.72-2.99,0-1.1-.29-1.88-.86-2.34-.58-.46-1.34-.68-2.3-.68s-1.79.26-2.63.79c-.84.53-1.57,1.27-2.2,2.23-.62.96-1.11,2.06-1.44,3.31-.34,1.25-.5,2.57-.5,3.96,0,1.92.24,3.61.72,5.08.48,1.46,1.16,2.69,2.05,3.67.89.98,1.96,1.73,3.2,2.23,1.25.5,2.59.76,4.03.76.77,0,1.27.35,1.51,1.04.24.7.24,1.4,0,2.12-.24.72-.75,1.08-1.51,1.08-3.36,0-6.17-.68-8.42-2.05-2.26-1.37-3.94-3.22-5.04-5.54-1.1-2.33-1.66-5.03-1.66-8.1,0-2.11.29-4.09.86-5.94.58-1.85,1.42-3.47,2.52-4.86,1.1-1.39,2.44-2.47,4-3.24,1.56-.77,3.28-1.15,5.15-1.15,1.54,0,2.87.3,4,.9,1.13.6,2.02,1.44,2.66,2.52.65,1.08.97,2.32.97,3.71,0,1.73-.47,3.43-1.4,5.11-.94,1.68-2.37,3.42-4.28,5.22-1.92,1.8-4.39,3.76-7.42,5.87l-3.96-1.87Z"/>
        <path class="cls-1" d="M1031.06,200.24c-.82,0-1.43-.13-1.84-.4-.41-.26-.61-.64-.61-1.12v-21.1c0-1.39-.19-2.35-.58-2.88-.38-.53-1.1-.79-2.16-.79-.77,0-1.27-.36-1.51-1.08-.24-.72-.22-1.44.07-2.16.29-.72.82-1.08,1.58-1.08,1.49,0,2.74.24,3.74.72,1.01.48,1.81,1.16,2.41,2.05.6.89.97,2,1.12,3.35l.07,1.44c.62-1.73,1.37-3.17,2.23-4.32.86-1.15,1.77-2,2.74-2.56.96-.55,1.9-.83,2.81-.83.58,0,1.07.13,1.48.4.41.26.61.85.61,1.76,0,1.58.23,2.76.68,3.53.46.77,1.07,1.15,1.84,1.15.91,0,1.86-.38,2.84-1.15.98-.77,2.05-1.7,3.2-2.81.48-.48,1.01-.55,1.58-.22.58.34,1,.82,1.26,1.44.26.62.2,1.13-.18,1.51-1.3,1.49-2.71,2.73-4.25,3.71-1.54.98-3.07,1.48-4.61,1.48s-2.8-.49-3.92-1.48c-1.13-.98-1.84-2.44-2.12-4.36-.77.38-1.54,1.12-2.3,2.2-.77,1.08-1.46,2.4-2.09,3.96-.62,1.56-1.15,3.3-1.58,5.22v12.89c0,.48-.22.85-.65,1.12-.43.26-1.06.4-1.87.4Z"/>
      </g>
      <rect class="cls-2" x="592.21" y="157.23" width="19.14" height="8.4" rx="4.2" ry="4.2" transform="translate(1134.96 -160.92) rotate(133.83)"/>
      <path class="cls-2" d="M603.65,171.2l7.92-8.25c1.39-1.45,3.57-1.81,5.35-.89l8.1,4.19c.92.47,1.65,1.25,2.06,2.19l8.8,19.89c1.64,3.71-2.05,7.55-5.82,6.05l-20.69-8.22c-.99-.39-1.8-1.12-2.31-2.05l-4.13-7.6c-.94-1.73-.65-3.88.71-5.3Z"/>
      <line class="cls-2" x1="616.24" y1="175.39" x2="635" y2="193.32"/>
      <g>
        <path class="cls-1" d="M305.15,323c-1.58,0-2.81-.29-3.67-.86-.86-.58-1.43-1.33-1.69-2.27-.26-.94-.34-1.97-.22-3.1.12-1.13.35-2.24.68-3.35l6.34-19.22c.24-.82.54-1.33.9-1.55.36-.22.92-.32,1.69-.32,1.2,0,1.96.18,2.27.54.31.36.35.92.11,1.69l-6.19,18.94c-.67,2.02-.94,3.38-.79,4.1.14.72.72,1.08,1.73,1.08.72,0,1.19.36,1.4,1.08.22.72.12,1.44-.29,2.16-.41.72-1.16,1.08-2.27,1.08ZM312.78,283.47c-.77,0-1.43-.25-1.98-.76-.55-.5-.83-1.24-.83-2.2,0-1.06.34-2.04,1.01-2.95.67-.91,1.73-1.37,3.17-1.37.82,0,1.49.25,2.02.76.53.5.79,1.24.79,2.2,0,1.06-.34,2.04-1.01,2.95-.67.91-1.73,1.37-3.17,1.37Z"/>
        <path class="cls-1" d="M323.94,323c-1.63,0-2.87-.29-3.71-.86-.84-.58-1.4-1.33-1.69-2.27s-.36-1.97-.22-3.1c.14-1.13.38-2.24.72-3.35l15.77-48.02c.24-.82.54-1.33.9-1.55.36-.22.92-.32,1.69-.32,1.2,0,1.96.18,2.27.54.31.36.35.92.11,1.69l-15.7,47.74c-.67,2.02-.92,3.38-.76,4.1.17.72.76,1.08,1.76,1.08.72,0,1.18.36,1.37,1.08.19.72.1,1.44-.29,2.16-.38.72-1.13,1.08-2.23,1.08Z"/>
        <path class="cls-1" d="M342.59,323c-1.63,0-2.87-.29-3.71-.86-.84-.58-1.4-1.33-1.69-2.27s-.36-1.97-.22-3.1c.14-1.13.38-2.24.72-3.35l15.77-48.02c.24-.82.54-1.33.9-1.55.36-.22.92-.32,1.69-.32,1.2,0,1.96.18,2.27.54.31.36.35.92.11,1.69l-15.7,47.74c-.67,2.02-.92,3.38-.76,4.1.17.72.76,1.08,1.76,1.08.72,0,1.18.36,1.37,1.08.19.72.1,1.44-.29,2.16-.38.72-1.13,1.08-2.23,1.08Z"/>
        <path class="cls-1" d="M362.1,322.86c-1.87,0-3.32-.43-4.36-1.3-1.03-.86-1.63-2.16-1.8-3.89-.17-1.73.16-3.79.97-6.19l5.76-17.28c.24-.82.54-1.33.9-1.55.36-.22.92-.32,1.69-.32,1.2,0,1.96.18,2.27.54.31.36.35.92.11,1.69l-5.98,17.93c-.58,1.73-.76,3.13-.54,4.21.22,1.08,1.16,1.62,2.84,1.62,1.2,0,2.52-.48,3.96-1.44,1.44-.96,2.92-2.32,4.43-4.07s2.99-3.82,4.43-6.19c1.44-2.38,2.76-4.98,3.96-7.81l1.51-4.61c.24-.82.54-1.33.9-1.55.36-.22.92-.32,1.69-.32,1.2,0,1.96.18,2.27.54.31.36.35.92.11,1.69l-6.26,18.94c-.62,1.97-.86,3.32-.72,4.07s.72,1.12,1.73,1.12c.72,0,1.18.36,1.37,1.08.19.72.1,1.44-.29,2.16-.38.72-1.13,1.08-2.23,1.08-1.54,0-2.7-.26-3.49-.79s-1.33-1.21-1.62-2.05c-.29-.84-.4-1.76-.32-2.77.07-1.01.2-1.94.4-2.81l.43-1.58c-1.39,2.11-2.88,3.91-4.46,5.4-1.58,1.49-3.18,2.6-4.79,3.35-1.61.74-3.23,1.12-4.86,1.12Z"/>
        <path class="cls-1" d="M401.7,323.07c-2.3,0-4.25-.3-5.83-.9-1.58-.6-2.9-1.33-3.96-2.2-.34-.34-.54-.73-.61-1.19-.07-.46.08-.95.47-1.48.38-.53.78-.88,1.19-1.04.41-.17.85-.08,1.33.25,1.15.72,2.35,1.33,3.6,1.84,1.25.5,2.52.76,3.82.76,2.11,0,3.71-.4,4.79-1.19s1.62-1.96,1.62-3.49c0-.96-.28-1.78-.83-2.45-.55-.67-1.27-1.28-2.16-1.84-.89-.55-1.81-1.1-2.77-1.66-.96-.55-1.88-1.18-2.77-1.87-.89-.7-1.61-1.52-2.16-2.48-.55-.96-.83-2.16-.83-3.6s.35-2.8,1.04-4.07c.7-1.27,1.79-2.31,3.28-3.13,1.49-.82,3.43-1.22,5.83-1.22,2.64,0,4.81.52,6.52,1.55,1.7,1.03,2.89,2.1,3.56,3.2.29.43.46.83.5,1.19.05.36-.24.78-.86,1.26-.48.34-.91.53-1.3.58-.38.05-.77-.12-1.15-.5-.91-.96-1.96-1.75-3.13-2.38-1.18-.62-2.6-.94-4.28-.94-1.82,0-3.12.37-3.89,1.12-.77.74-1.15,1.67-1.15,2.77,0,.96.28,1.76.83,2.41.55.65,1.27,1.26,2.16,1.84.89.58,1.81,1.14,2.77,1.69.96.55,1.88,1.18,2.77,1.87.89.7,1.61,1.52,2.16,2.48.55.96.83,2.14.83,3.53,0,2.26-.5,4.06-1.51,5.4s-2.38,2.33-4.1,2.95c-1.73.62-3.65.94-5.76.94Z"/>
        <path class="cls-1" d="M428.84,323c-2.45,0-4.32-.66-5.62-1.98-1.3-1.32-2.05-3.05-2.27-5.18-.22-2.13.08-4.4.9-6.8l3.67-11.23h-4.39c-.43,0-.72-.19-.86-.58-.14-.38-.12-.96.07-1.73.24-.77.54-1.34.9-1.73.36-.38.76-.58,1.19-.58h4.61l3.74-11.38c.24-.82.54-1.33.9-1.55.36-.22.92-.32,1.69-.32,1.2,0,1.96.18,2.27.54.31.36.35.92.11,1.69l-3.6,11.02h7.27c.43,0,.73.18.9.54.17.36.13.95-.11,1.76-.19.77-.48,1.34-.86,1.73s-.79.58-1.22.58h-7.49l-3.89,11.74c-.67,2.06-.94,3.77-.79,5.11s.58,2.35,1.3,3.02c.72.67,1.66,1.01,2.81,1.01.72,0,1.18.36,1.37,1.08.19.72.08,1.44-.32,2.16-.41.72-1.16,1.08-2.27,1.08Z"/>
        <path class="cls-1" d="M442.96,322.86c-.62,0-1.2-.13-1.73-.4-.53-.26-.67-.76-.43-1.48l8.64-26.78c.24-.82.54-1.33.9-1.55s.92-.32,1.69-.32c1.2,0,1.96.18,2.27.54.31.36.35.92.11,1.69l-2.45,7.63c1.34-2.16,2.69-4,4.03-5.51,1.34-1.51,2.64-2.65,3.89-3.42,1.25-.77,2.38-1.15,3.38-1.15.72,0,1.22.23,1.51.68.29.46.38,1,.29,1.62-.1.62-.37,1.16-.83,1.62-.46.46-1.04.68-1.76.68s-1.67.45-2.84,1.33c-1.18.89-2.46,2.16-3.85,3.82-1.39,1.66-2.8,3.65-4.21,5.98-1.42,2.33-2.75,4.93-4,7.81l-1.87,5.69c-.19.53-.48.91-.86,1.15-.38.24-1.01.36-1.87.36Z"/>
        <path class="cls-1" d="M471.4,323c-2.11,0-3.8-.78-5.08-2.34-1.27-1.56-1.91-3.71-1.91-6.44,0-2.21.41-4.57,1.22-7.09.82-2.52,2.03-4.92,3.64-7.2,1.61-2.28,3.59-4.15,5.94-5.62,2.35-1.46,5.06-2.2,8.14-2.2,1.54,0,3.13.28,4.79.83s3.13,1.31,4.43,2.27l-.94,3.96c-1.78-1.05-3.37-1.74-4.79-2.05-1.42-.31-2.75-.47-4-.47-2.16,0-4.07.58-5.72,1.73-1.66,1.15-3.04,2.62-4.14,4.39-1.1,1.78-1.93,3.61-2.48,5.51-.55,1.9-.83,3.59-.83,5.08,0,1.01.13,1.9.4,2.66.26.77.65,1.36,1.15,1.76.5.41,1.12.61,1.84.61,1.39,0,2.93-.68,4.61-2.05,1.68-1.37,3.43-3.36,5.26-5.98,1.82-2.62,3.67-5.8,5.54-9.54l1.87,2.3c-2.21,4.61-4.44,8.38-6.7,11.3-2.26,2.93-4.43,5.09-6.52,6.48s-4,2.09-5.72,2.09ZM488.89,323c-1.63,0-2.87-.29-3.71-.86-.84-.58-1.4-1.34-1.69-2.3-.29-.96-.37-2-.25-3.13.12-1.13.37-2.22.76-3.28l6.41-19.22c.24-.82.54-1.33.9-1.55s.92-.32,1.69-.32c1.2,0,1.96.18,2.27.54.31.36.35.92.11,1.69l-6.34,18.94c-.67,1.97-.94,3.32-.79,4.07s.74,1.12,1.8,1.12c.72,0,1.18.36,1.37,1.08.19.72.08,1.44-.32,2.16-.41.72-1.14,1.08-2.2,1.08Z"/>
        <path class="cls-1" d="M511,323c-2.45,0-4.32-.66-5.62-1.98-1.3-1.32-2.05-3.05-2.27-5.18-.22-2.13.08-4.4.9-6.8l3.67-11.23h-4.39c-.43,0-.72-.19-.86-.58-.14-.38-.12-.96.07-1.73.24-.77.54-1.34.9-1.73.36-.38.76-.58,1.19-.58h4.61l3.74-11.38c.24-.82.54-1.33.9-1.55.36-.22.92-.32,1.69-.32,1.2,0,1.96.18,2.27.54.31.36.35.92.11,1.69l-3.6,11.02h7.27c.43,0,.73.18.9.54.17.36.13.95-.11,1.76-.19.77-.48,1.34-.86,1.73s-.79.58-1.22.58h-7.49l-3.89,11.74c-.67,2.06-.94,3.77-.79,5.11s.58,2.35,1.3,3.02c.72.67,1.66,1.01,2.81,1.01.72,0,1.18.36,1.37,1.08.19.72.08,1.44-.32,2.16-.41.72-1.16,1.08-2.27,1.08Z"/>
        <path class="cls-1" d="M530.15,323c-1.58,0-2.81-.29-3.67-.86-.86-.58-1.43-1.33-1.69-2.27-.26-.94-.34-1.97-.22-3.1.12-1.13.35-2.24.68-3.35l6.34-19.22c.24-.82.54-1.33.9-1.55s.92-.32,1.69-.32c1.2,0,1.96.18,2.27.54.31.36.35.92.11,1.69l-6.19,18.94c-.67,2.02-.94,3.38-.79,4.1.14.72.72,1.08,1.73,1.08.72,0,1.19.36,1.4,1.08.22.72.12,1.44-.29,2.16-.41.72-1.16,1.08-2.27,1.08ZM537.78,283.47c-.77,0-1.43-.25-1.98-.76-.55-.5-.83-1.24-.83-2.2,0-1.06.34-2.04,1.01-2.95.67-.91,1.73-1.37,3.17-1.37.82,0,1.49.25,2.02.76.53.5.79,1.24.79,2.2,0,1.06-.34,2.04-1.01,2.95-.67.91-1.73,1.37-3.17,1.37Z"/>
        <path class="cls-1" d="M553.76,323.07c-2.4,0-4.42-.48-6.05-1.44-1.63-.96-2.87-2.29-3.71-4-.84-1.7-1.26-3.64-1.26-5.8,0-2.02.36-4.18,1.08-6.48.72-2.3,1.81-4.45,3.28-6.44,1.46-1.99,3.28-3.62,5.44-4.9,2.16-1.27,4.68-1.91,7.56-1.91,2.4,0,4.4.46,6.01,1.37,1.61.91,2.83,2.17,3.67,3.78.84,1.61,1.26,3.49,1.26,5.65,0,1.92-.35,4.04-1.04,6.37-.7,2.33-1.76,4.54-3.2,6.62s-3.24,3.8-5.4,5.15c-2.16,1.34-4.7,2.02-7.63,2.02ZM554.34,318.46c1.87,0,3.52-.49,4.93-1.48,1.42-.98,2.62-2.26,3.6-3.82.98-1.56,1.72-3.2,2.2-4.93.48-1.73.72-3.31.72-4.75,0-2.26-.55-3.95-1.66-5.08-1.1-1.13-2.62-1.69-4.54-1.69s-3.6.49-5.04,1.48c-1.44.98-2.65,2.24-3.64,3.78-.98,1.54-1.73,3.14-2.23,4.82-.5,1.68-.76,3.24-.76,4.68,0,2.21.58,3.92,1.73,5.15,1.15,1.22,2.71,1.84,4.68,1.84Z"/>
        <path class="cls-1" d="M602.22,322.86c-1.54,0-2.65-.3-3.35-.9-.7-.6-1.13-1.4-1.3-2.41-.17-1.01-.14-2.06.07-3.17.22-1.1.47-2.16.76-3.17l3.74-11.02c.58-1.58.74-2.89.5-3.92-.24-1.03-1.18-1.55-2.81-1.55-1.25,0-2.59.47-4.03,1.4-1.44.94-2.92,2.26-4.43,3.96-1.51,1.7-2.99,3.72-4.43,6.05-1.44,2.33-2.76,4.91-3.96,7.74l-1.8,5.47c-.19.53-.48.91-.86,1.15-.38.24-1.01.36-1.87.36-.62,0-1.2-.13-1.73-.4-.53-.26-.67-.76-.43-1.48l8.64-26.78c.24-.82.54-1.33.9-1.55s.92-.32,1.69-.32c1.2,0,1.96.18,2.27.54.31.36.35.92.11,1.69l-2.45,7.49c1.49-2.11,3.01-3.91,4.57-5.4,1.56-1.49,3.16-2.62,4.79-3.38,1.63-.77,3.26-1.15,4.9-1.15,1.92,0,3.38.46,4.39,1.37,1.01.91,1.57,2.22,1.69,3.92.12,1.7-.23,3.8-1.04,6.3l-4.1,12.1c-.24.62-.37,1.14-.4,1.55-.02.41.05.71.22.9.17.19.4.29.68.29.43,0,.86-.13,1.3-.4.43-.26.88-.62,1.33-1.08.46-.46.9-1,1.33-1.62.29-.34.6-.54.94-.61.34-.07.74.04,1.22.32.62.38,1,.78,1.12,1.19.12.41.06.8-.18,1.19-.34.62-.89,1.36-1.66,2.2-.77.84-1.68,1.57-2.74,2.2-1.06.62-2.26.94-3.6.94Z"/>
      </g>
      <g>
        <path class="cls-1" d="M773.83,318.6c-2.11,0-3.8-.78-5.08-2.34-1.27-1.56-1.91-3.71-1.91-6.44,0-2.21.41-4.57,1.22-7.09.82-2.52,2.03-4.92,3.64-7.2,1.61-2.28,3.59-4.15,5.94-5.62,2.35-1.46,5.06-2.2,8.14-2.2,1.2,0,2.42.17,3.67.5,1.25.34,2.47.82,3.67,1.44l9.43-28.66c.24-.82.54-1.33.9-1.55.36-.22.92-.32,1.69-.32,1.2,0,1.96.18,2.27.54.31.36.35.92.11,1.69l-15.77,47.74c-.62,1.97-.83,3.32-.61,4.07s1.02,1.12,2.41,1.12c.53,0,.86.36,1.01,1.08.14.72.05,1.44-.29,2.16-.34.72-.96,1.08-1.87,1.08-1.68,0-2.99-.26-3.92-.79-.94-.53-1.56-1.22-1.87-2.09-.31-.86-.44-1.79-.4-2.77.05-.98.17-1.93.36-2.84v-.43c-1.54,2.06-3.05,3.76-4.54,5.08-1.49,1.32-2.93,2.29-4.32,2.92-1.39.62-2.69.94-3.89.94ZM775.49,313.99c1.3,0,2.74-.6,4.32-1.8,1.58-1.2,3.26-2.96,5.04-5.29,1.77-2.33,3.55-5.15,5.33-8.46l1.66-4.82c-1.3-.53-2.47-.89-3.53-1.08-1.06-.19-2.06-.29-3.02-.29-2.16,0-4.07.58-5.72,1.73-1.66,1.15-3.04,2.62-4.14,4.39-1.1,1.78-1.93,3.61-2.48,5.51-.55,1.9-.83,3.59-.83,5.08,0,1.01.13,1.9.4,2.66s.65,1.36,1.15,1.76c.5.41,1.12.61,1.84.61Z"/>
        <path class="cls-1" d="M808.25,307.73c1.58-.91,3.19-1.92,4.82-3.02,1.63-1.1,3.16-2.26,4.57-3.46,1.42-1.2,2.56-2.36,3.42-3.49.86-1.13,1.3-2.2,1.3-3.2,0-.86-.23-1.46-.68-1.8-.46-.33-1.04-.5-1.76-.5-1.54,0-2.92.49-4.14,1.48-1.22.98-2.28,2.22-3.17,3.71-.89,1.49-1.56,3.04-2.02,4.64s-.68,3.01-.68,4.21c0,1.3.14,2.42.43,3.38.29.96.72,1.78,1.3,2.45.58.67,1.3,1.18,2.16,1.51.86.34,1.85.5,2.95.5.72,0,1.15.37,1.3,1.12.14.74.04,1.49-.32,2.23-.36.74-.92,1.12-1.69,1.12-2.59,0-4.72-.5-6.37-1.51s-2.89-2.41-3.71-4.21c-.82-1.8-1.22-3.9-1.22-6.3,0-1.87.36-3.9,1.08-6.08.72-2.18,1.76-4.24,3.13-6.16,1.37-1.92,3.04-3.5,5-4.75,1.97-1.25,4.22-1.87,6.77-1.87,1.39,0,2.6.24,3.64.72,1.03.48,1.84,1.18,2.41,2.09.58.91.87,2.02.87,3.31,0,2.02-.76,4-2.27,5.94-1.51,1.94-3.6,3.88-6.26,5.8-2.66,1.92-5.75,3.94-9.25,6.05l-1.58-3.89Z"/>
        <path class="cls-1" d="M841.3,318.67c-2.3,0-4.25-.3-5.83-.9s-2.9-1.33-3.96-2.2c-.34-.34-.54-.73-.61-1.19-.07-.46.08-.95.47-1.48.38-.53.78-.88,1.19-1.04.41-.17.85-.08,1.33.25,1.15.72,2.35,1.33,3.6,1.84,1.25.5,2.52.76,3.82.76,2.11,0,3.71-.4,4.79-1.19s1.62-1.96,1.62-3.49c0-.96-.28-1.78-.83-2.45-.55-.67-1.27-1.28-2.16-1.84-.89-.55-1.81-1.1-2.77-1.66-.96-.55-1.88-1.18-2.77-1.87-.89-.7-1.61-1.52-2.16-2.48-.55-.96-.83-2.16-.83-3.6s.35-2.8,1.04-4.07c.7-1.27,1.79-2.31,3.28-3.13,1.49-.82,3.43-1.22,5.83-1.22,2.64,0,4.81.52,6.52,1.55,1.7,1.03,2.89,2.1,3.56,3.2.29.43.46.83.5,1.19.05.36-.24.78-.86,1.26-.48.34-.91.53-1.3.58-.38.05-.77-.12-1.15-.5-.91-.96-1.96-1.75-3.13-2.38-1.18-.62-2.6-.94-4.28-.94-1.83,0-3.12.37-3.89,1.12s-1.15,1.67-1.15,2.77c0,.96.28,1.76.83,2.41.55.65,1.27,1.26,2.16,1.84.89.58,1.81,1.14,2.77,1.69.96.55,1.88,1.18,2.77,1.87.89.7,1.61,1.52,2.16,2.48.55.96.83,2.14.83,3.53,0,2.26-.5,4.06-1.51,5.4s-2.38,2.33-4.1,2.95c-1.73.62-3.65.94-5.76.94Z"/>
        <path class="cls-1" d="M865.27,318.6c-1.58,0-2.81-.29-3.67-.86-.86-.58-1.43-1.33-1.69-2.27-.26-.94-.34-1.97-.22-3.1.12-1.13.35-2.24.68-3.35l6.34-19.22c.24-.82.54-1.33.9-1.55.36-.22.92-.32,1.69-.32,1.2,0,1.96.18,2.27.54s.35.92.11,1.69l-6.19,18.94c-.67,2.02-.94,3.38-.79,4.1.14.72.72,1.08,1.73,1.08.72,0,1.19.36,1.4,1.08.22.72.12,1.44-.29,2.16-.41.72-1.17,1.08-2.27,1.08ZM872.9,279.07c-.77,0-1.43-.25-1.98-.76-.55-.5-.83-1.24-.83-2.2,0-1.06.33-2.04,1.01-2.95.67-.91,1.73-1.37,3.17-1.37.82,0,1.49.25,2.02.76.53.5.79,1.24.79,2.2,0,1.06-.34,2.04-1.01,2.95-.67.91-1.73,1.37-3.17,1.37Z"/>
        <path class="cls-1" d="M879.31,347.47c-1.92,0-3.73-.36-5.44-1.08-1.7-.72-3.18-1.7-4.43-2.95-.72-.67-1.1-1.31-1.15-1.91-.05-.6.29-1.21,1.01-1.84.67-.53,1.25-.74,1.73-.65.48.1,1.01.46,1.58,1.08.91.91,1.98,1.62,3.2,2.12,1.22.5,2.51.76,3.85.76,2.5,0,4.44-.73,5.83-2.2,1.39-1.46,2.66-3.97,3.82-7.52l7.7-23.76c-1.58,2.06-3.13,3.77-4.64,5.11-1.51,1.34-2.95,2.34-4.32,2.99-1.37.65-2.68.97-3.92.97-2.11,0-3.8-.78-5.08-2.34-1.27-1.56-1.91-3.71-1.91-6.44,0-2.21.41-4.57,1.22-7.09.82-2.52,2.03-4.92,3.64-7.2,1.61-2.28,3.6-4.15,5.98-5.62s5.1-2.2,8.17-2.2c1.2,0,2.42.17,3.67.5,1.25.34,2.45.79,3.6,1.37l.07-.14c.19-.62.48-1.03.86-1.22.38-.19.91-.29,1.58-.29,1.2,0,1.96.18,2.27.54.31.36.35.92.11,1.69l-14.11,43.27c-1.25,3.74-2.54,6.62-3.89,8.64-1.34,2.02-2.9,3.42-4.68,4.21-1.78.79-3.89,1.19-6.34,1.19ZM885.79,313.99c1.34,0,2.82-.61,4.43-1.84,1.61-1.22,3.3-3.01,5.08-5.36,1.77-2.35,3.55-5.18,5.33-8.5l1.58-4.75c-1.25-.53-2.41-.88-3.49-1.04-1.08-.17-2.1-.25-3.06-.25-2.21,0-4.14.58-5.8,1.73-1.66,1.15-3.04,2.62-4.14,4.39-1.11,1.78-1.93,3.61-2.48,5.51-.55,1.9-.83,3.59-.83,5.08,0,1.01.13,1.9.4,2.66.26.77.66,1.36,1.19,1.76.53.41,1.13.61,1.8.61Z"/>
        <path class="cls-1" d="M937.42,318.46c-1.54,0-2.65-.3-3.35-.9-.7-.6-1.13-1.4-1.3-2.41-.17-1.01-.14-2.06.07-3.17.22-1.1.47-2.16.76-3.17l3.74-11.02c.58-1.58.74-2.89.5-3.92-.24-1.03-1.18-1.55-2.81-1.55-1.25,0-2.59.47-4.03,1.4-1.44.94-2.92,2.26-4.43,3.96-1.51,1.7-2.99,3.72-4.43,6.05-1.44,2.33-2.76,4.91-3.96,7.74l-1.8,5.47c-.19.53-.48.91-.86,1.15-.38.24-1.01.36-1.87.36-.62,0-1.2-.13-1.73-.4-.53-.26-.67-.76-.43-1.48l8.64-26.78c.24-.82.54-1.33.9-1.55.36-.22.92-.32,1.69-.32,1.2,0,1.96.18,2.27.54s.35.92.11,1.69l-2.45,7.49c1.49-2.11,3.01-3.91,4.57-5.4,1.56-1.49,3.16-2.62,4.79-3.38,1.63-.77,3.26-1.15,4.9-1.15,1.92,0,3.38.46,4.39,1.37,1.01.91,1.57,2.22,1.69,3.92.12,1.7-.23,3.8-1.04,6.3l-4.1,12.1c-.24.62-.37,1.14-.4,1.55-.02.41.05.71.22.9.17.19.4.29.68.29.43,0,.86-.13,1.3-.4s.88-.62,1.33-1.08c.46-.46.9-1,1.33-1.62.29-.34.6-.54.94-.61.33-.07.74.04,1.22.32.62.38,1,.78,1.12,1.19.12.41.06.8-.18,1.19-.34.62-.89,1.36-1.66,2.2-.77.84-1.68,1.57-2.74,2.2-1.06.62-2.26.94-3.6.94Z"/>
      </g>
      <g>
        <path class="cls-1" d="M1107.59,318.09c-.82,0-1.38-.17-1.69-.5-.31-.34-.49-.89-.54-1.66l-.65-26.14c0-.53.16-1.03.47-1.51.31-.48,1-.72,2.05-.72.82,0,1.42.17,1.8.5.38.34.58.94.58,1.8l.14,20.38,13.82-20.88c.48-.67.96-1.14,1.44-1.4.48-.26,1.1-.4,1.87-.4.62,0,1.17.19,1.66.58.48.38.74,1.08.79,2.09l.65,19.94,13.32-21.02c.43-.67.86-1.1,1.3-1.3.43-.19.91-.29,1.44-.29,1.1,0,1.85.28,2.23.83.38.55.33,1.19-.14,1.91l-17.14,26.28c-.29.43-.72.79-1.3,1.08s-1.27.43-2.09.43-1.39-.17-1.73-.5c-.34-.34-.5-.89-.5-1.66l-.65-20.45-13.97,21.1c-.29.38-.68.73-1.19,1.04-.5.31-1.16.47-1.98.47Z"/>
        <path class="cls-1" d="M1150.14,318.09c-.62,0-1.2-.13-1.73-.4-.53-.26-.67-.76-.43-1.48l8.64-26.78c.24-.82.54-1.33.9-1.55.36-.22.92-.32,1.69-.32,1.2,0,1.95.18,2.27.54s.35.92.11,1.69l-2.45,7.63c1.34-2.16,2.69-4,4.03-5.51,1.34-1.51,2.64-2.65,3.89-3.42s2.38-1.15,3.38-1.15c.72,0,1.22.23,1.51.68.29.46.38,1,.29,1.62-.1.62-.37,1.16-.83,1.62-.46.46-1.04.68-1.76.68s-1.67.45-2.85,1.33c-1.18.89-2.46,2.16-3.85,3.82s-2.8,3.65-4.21,5.98c-1.42,2.33-2.75,4.93-4,7.81l-1.87,5.69c-.19.53-.48.91-.86,1.15-.38.24-1.01.36-1.87.36Z"/>
        <path class="cls-1" d="M1178.44,318.24c-1.58,0-2.81-.29-3.67-.86-.86-.58-1.43-1.33-1.69-2.27-.26-.94-.34-1.97-.22-3.1.12-1.13.35-2.24.68-3.35l6.34-19.22c.24-.82.54-1.33.9-1.55.36-.22.92-.32,1.69-.32,1.2,0,1.96.18,2.27.54s.35.92.11,1.69l-6.19,18.94c-.67,2.02-.94,3.38-.79,4.1.14.72.72,1.08,1.73,1.08.72,0,1.19.36,1.4,1.08.22.72.12,1.44-.29,2.16-.41.72-1.17,1.08-2.27,1.08ZM1186.07,278.71c-.77,0-1.43-.25-1.98-.76-.55-.5-.83-1.24-.83-2.2,0-1.06.33-2.04,1.01-2.95.67-.91,1.73-1.37,3.17-1.37.82,0,1.49.25,2.02.76.53.5.79,1.24.79,2.2,0,1.06-.34,2.04-1.01,2.95-.67.91-1.73,1.37-3.17,1.37Z"/>
        <path class="cls-1" d="M1200.32,318.24c-2.45,0-4.32-.66-5.62-1.98-1.3-1.32-2.05-3.05-2.27-5.18-.22-2.13.08-4.4.9-6.8l3.67-11.23h-4.39c-.43,0-.72-.19-.86-.58-.14-.38-.12-.96.07-1.73.24-.77.54-1.34.9-1.73.36-.38.76-.58,1.19-.58h4.61l3.74-11.38c.24-.82.54-1.33.9-1.55.36-.22.92-.32,1.69-.32,1.2,0,1.96.18,2.27.54.31.36.35.92.11,1.69l-3.6,11.02h7.27c.43,0,.73.18.9.54.17.36.13.95-.11,1.76-.19.77-.48,1.34-.86,1.73-.38.38-.79.58-1.22.58h-7.49l-3.89,11.74c-.67,2.06-.94,3.77-.79,5.11.14,1.34.58,2.35,1.3,3.02.72.67,1.66,1.01,2.81,1.01.72,0,1.18.36,1.37,1.08.19.72.08,1.44-.32,2.16-.41.72-1.17,1.08-2.27,1.08Z"/>
        <path class="cls-1" d="M1219.48,318.24c-1.58,0-2.81-.29-3.67-.86-.86-.58-1.43-1.33-1.69-2.27-.26-.94-.34-1.97-.22-3.1.12-1.13.35-2.24.68-3.35l6.34-19.22c.24-.82.54-1.33.9-1.55.36-.22.92-.32,1.69-.32,1.2,0,1.96.18,2.27.54s.35.92.11,1.69l-6.19,18.94c-.67,2.02-.94,3.38-.79,4.1.14.72.72,1.08,1.73,1.08.72,0,1.19.36,1.4,1.08.22.72.12,1.44-.29,2.16-.41.72-1.17,1.08-2.27,1.08ZM1227.11,278.71c-.77,0-1.43-.25-1.98-.76-.55-.5-.83-1.24-.83-2.2,0-1.06.33-2.04,1.01-2.95.67-.91,1.73-1.37,3.17-1.37.82,0,1.49.25,2.02.76.53.5.79,1.24.79,2.2,0,1.06-.34,2.04-1.01,2.95-.67.91-1.73,1.37-3.17,1.37Z"/>
        <path class="cls-1" d="M1257.92,318.24c-1.58,0-2.81-.29-3.67-.86-.86-.58-1.44-1.34-1.73-2.3-.29-.96-.36-2-.22-3.13.14-1.13.38-2.22.72-3.28l3.82-11.23c.58-1.58.74-2.89.5-3.92-.24-1.03-1.18-1.55-2.81-1.55-1.25,0-2.58.46-4,1.37-1.42.91-2.88,2.22-4.39,3.92-1.51,1.71-2.98,3.71-4.39,6.01-1.42,2.3-2.75,4.85-4,7.63l-1.87,5.69c-.19.53-.48.91-.86,1.15-.38.24-1.01.36-1.87.36-.62,0-1.2-.13-1.73-.4-.53-.26-.67-.76-.43-1.48l8.64-26.78c.24-.82.54-1.33.9-1.55.36-.22.92-.32,1.69-.32,1.2,0,1.96.18,2.27.54s.35.92.11,1.69l-2.38,7.42c1.44-2.11,2.94-3.9,4.5-5.36,1.56-1.46,3.16-2.58,4.79-3.35,1.63-.77,3.26-1.15,4.9-1.15,1.92,0,3.38.46,4.39,1.37,1.01.91,1.57,2.22,1.69,3.92.12,1.7-.23,3.8-1.04,6.3l-3.31,9.79c-.67,1.97-.94,3.32-.79,4.07.14.74.72,1.12,1.73,1.12.72,0,1.19.36,1.4,1.08.22.72.12,1.44-.29,2.16-.41.72-1.16,1.08-2.27,1.08Z"/>
        <path class="cls-1" d="M1272.18,347.11c-1.92,0-3.73-.36-5.44-1.08-1.7-.72-3.18-1.7-4.43-2.95-.72-.67-1.1-1.31-1.15-1.91-.05-.6.29-1.21,1.01-1.84.67-.53,1.25-.74,1.73-.65.48.1,1.01.46,1.58,1.08.91.91,1.98,1.62,3.2,2.12,1.22.5,2.51.76,3.85.76,2.5,0,4.44-.73,5.83-2.2,1.39-1.46,2.66-3.97,3.82-7.52l7.7-23.76c-1.58,2.06-3.13,3.77-4.64,5.11-1.51,1.34-2.95,2.34-4.32,2.99-1.37.65-2.68.97-3.92.97-2.11,0-3.8-.78-5.08-2.34-1.27-1.56-1.91-3.71-1.91-6.44,0-2.21.41-4.57,1.22-7.09.82-2.52,2.03-4.92,3.64-7.2,1.61-2.28,3.6-4.15,5.98-5.62s5.1-2.2,8.17-2.2c1.2,0,2.42.17,3.67.5,1.25.34,2.45.79,3.6,1.37l.07-.14c.19-.62.48-1.03.86-1.22.38-.19.91-.29,1.58-.29,1.2,0,1.96.18,2.27.54.31.36.35.92.11,1.69l-14.11,43.27c-1.25,3.74-2.54,6.62-3.89,8.64-1.34,2.02-2.9,3.42-4.68,4.21-1.78.79-3.89,1.19-6.34,1.19ZM1278.66,313.63c1.34,0,2.82-.61,4.43-1.84,1.61-1.22,3.3-3.01,5.08-5.36,1.77-2.35,3.55-5.18,5.33-8.5l1.58-4.75c-1.25-.53-2.41-.88-3.49-1.04-1.08-.17-2.1-.25-3.06-.25-2.21,0-4.14.58-5.8,1.73-1.66,1.15-3.04,2.62-4.14,4.39-1.11,1.78-1.93,3.61-2.48,5.51-.55,1.9-.83,3.59-.83,5.08,0,1.01.13,1.9.4,2.66.26.77.66,1.36,1.19,1.76.53.41,1.13.61,1.8.61Z"/>
      </g>
      <g>
        <circle class="cls-4" cx="1026.47" cy="305.48" r="7.77"/>
        <g>
          <ellipse class="cls-3" cx="1026.47" cy="283.36" rx="7.84" ry="13.49"/>
          <ellipse class="cls-3" cx="1043.76" cy="291.69" rx="13.49" ry="7.84" transform="translate(45.85 714.41) rotate(-38.57)"/>
          <ellipse class="cls-3" cx="1048.03" cy="310.4" rx="7.84" ry="13.49" transform="translate(512.2 1263.09) rotate(-77.14)"/>
          <ellipse class="cls-3" cx="1036.07" cy="325.41" rx="7.84" ry="13.49" transform="translate(-38.59 481.76) rotate(-25.71)"/>
          <ellipse class="cls-3" cx="1016.87" cy="325.41" rx="13.49" ry="7.84" transform="translate(282.48 1100.39) rotate(-64.29)"/>
          <ellipse class="cls-3" cx="1004.91" cy="310.41" rx="13.49" ry="7.84" transform="translate(-43.88 231.4) rotate(-12.86)"/>
          <ellipse class="cls-3" cx="1009.18" cy="291.69" rx="7.84" ry="13.49" transform="translate(151.91 898.83) rotate(-51.43)"/>
        </g>
      </g>
      <g>
        <circle class="cls-4" cx="685.56" cy="309.27" r="7.77"/>
        <g>
          <ellipse class="cls-3" cx="685.56" cy="287.16" rx="7.84" ry="13.49"/>
          <ellipse class="cls-3" cx="702.85" cy="295.48" rx="13.49" ry="7.84" transform="translate(-30.89 502.69) rotate(-38.57)"/>
          <ellipse class="cls-3" cx="707.12" cy="314.19" rx="7.84" ry="13.49" transform="translate(243.45 933.67) rotate(-77.14)"/>
          <ellipse class="cls-3" cx="695.15" cy="329.2" rx="7.84" ry="13.49" transform="translate(-73.99 334.22) rotate(-25.71)"/>
          <ellipse class="cls-3" cx="675.96" cy="329.2" rx="13.49" ry="7.84" transform="translate(86.07 795.39) rotate(-64.29)"/>
          <ellipse class="cls-3" cx="663.99" cy="314.2" rx="13.49" ry="7.84" transform="translate(-53.27 155.63) rotate(-12.86)"/>
          <ellipse class="cls-3" cx="668.26" cy="295.48" rx="7.84" ry="13.49" transform="translate(20.59 633.72) rotate(-51.43)"/>
        </g>
      </g>
    </g>
  </g>
</svg>